<?xml version="1.0" encoding="utf-8"?>
<!-- Generator: Adobe Illustrator 25.0.0, SVG Export Plug-In . SVG Version: 6.00 Build 0)  -->
<svg version="1.1" id="Layer_1" xmlns="http://www.w3.org/2000/svg" xmlns:xlink="http://www.w3.org/1999/xlink" x="0px" y="0px"
	 viewBox="0 0 1024 1024" style="enable-background:new 0 0 1024 1024;" xml:space="preserve">
<style type="text/css">
	.st0{fill:#E5E9F4;stroke:#C4CFDF;stroke-width:10;stroke-miterlimit:10;}
	.st1{fill:#C4CFDF;stroke:#C4CFDF;stroke-width:10;stroke-linecap:round;stroke-linejoin:round;stroke-miterlimit:10;}
	.st2{fill:#BCD63F;}
	.st3{fill:none;stroke:#10454F;stroke-width:16;stroke-miterlimit:10;}
	.st4{fill:#10454F;}
	.st5{fill:none;stroke:#10454F;stroke-width:5;stroke-miterlimit:10;}
	.st6{fill:none;stroke:#10454F;stroke-width:5;stroke-miterlimit:10;stroke-dasharray:11.6112,11.6112;}
	.st7{fill:none;stroke:#10454F;stroke-width:5;stroke-miterlimit:10;stroke-dasharray:11.877,11.877;}
	.st8{fill:none;stroke:#10454F;stroke-width:5;stroke-miterlimit:10;stroke-dasharray:12.2123,12.2123;}
	.st9{fill:none;stroke:#10454F;stroke-width:5;stroke-miterlimit:10;stroke-dasharray:12.2606,12.2606;}
	.st10{fill:#98AA3A;}
	.st11{fill:none;stroke:#C4CFDF;stroke-width:10;stroke-miterlimit:10;}
</style>
<path class="st0" d="M219.56,876.8V245.57c0-7.66,3.04-15.01,8.46-20.43L357.68,95.46c5.42-5.42,12.77-8.46,20.44-8.46h448.12
	c15.96,0,28.9,12.94,28.9,28.9V876.8c0,15.96-12.94,28.9-28.9,28.9H248.46C232.49,905.7,219.56,892.76,219.56,876.8z"/>
<path class="st1" d="M372.51,87v126.24c0,14.76-11.96,26.72-26.72,26.72H219.56L372.51,87z"/>
<path class="st2" d="M418.87,418.6H308.49l84.03-71.57C408.96,366.3,418.87,391.29,418.87,418.6z"/>
<g>
	<polyline class="st3" points="729.09,418.6 418.87,418.6 308.49,418.6 392.52,347.03 583.6,184.3 592.01,177.14 	"/>
	<polygon class="st4" points="776.09,418.6 729.09,391.47 729.09,445.73 	"/>
	<polygon class="st4" points="619.25,153.68 565.79,162.99 600.59,204.63 	"/>
</g>
<g>
	<g>
		<line class="st5" x1="619.25" y1="173.77" x2="619.25" y2="179.77"/>
		<line class="st6" x1="619.25" y1="191.38" x2="619.25" y2="394.57"/>
		<line class="st5" x1="619.25" y1="400.38" x2="619.25" y2="406.38"/>
	</g>
</g>
<line class="st5" x1="286.57" y1="442.97" x2="286.57" y2="506.58"/>
<line class="st5" x1="619.25" y1="442.97" x2="619.25" y2="506.58"/>
<g>
	<g>
		<line class="st5" x1="286.57" y1="474.77" x2="292.57" y2="474.77"/>
		<line class="st7" x1="304.45" y1="474.77" x2="607.31" y2="474.77"/>
		<line class="st5" x1="613.25" y1="474.77" x2="619.25" y2="474.77"/>
	</g>
</g>
<g>
	<g>
		<line class="st5" x1="458.46" y1="709.73" x2="464.46" y2="709.72"/>
		<line class="st8" x1="476.67" y1="709.72" x2="812.51" y2="709.48"/>
		<line class="st5" x1="818.61" y1="709.48" x2="824.61" y2="709.48"/>
	</g>
</g>
<path class="st3" d="M730.6,584.84c-451.15,139.25,0,251.81,0,251.81"/>
<g>
	<g>
		<path class="st5" d="M504.76,576.07c0,2.02,0,4.02,0,6"/>
		<path class="st9" d="M504.76,594.33c0,159.75,0,217.91,0,239.09"/>
		<path class="st5" d="M504.76,839.55c0,5.93,0,6,0,6"/>
	</g>
</g>
<g>
	<path class="st2" d="M168.86,536.8v387.43c0,7.05,5.72,12.77,12.77,12.77h352.91c11.09,0,16.91-13.17,9.44-21.37L191.08,528.2
		C183.22,519.57,168.86,525.13,168.86,536.8z M242.37,683.42l162.87,178.8H242.37V683.42z"/>
	<g>
		<g>
			<rect x="189.64" y="918.86" class="st10" width="6.24" height="18.14"/>
			<rect x="227.1" y="918.86" class="st10" width="6.24" height="18.14"/>
			<rect x="264.57" y="918.86" class="st10" width="6.24" height="18.14"/>
			<rect x="302.03" y="918.86" class="st10" width="6.24" height="18.14"/>
			<rect x="339.5" y="918.86" class="st10" width="6.24" height="18.14"/>
			<rect x="376.96" y="918.86" class="st10" width="6.24" height="18.14"/>
			<rect x="414.43" y="918.86" class="st10" width="6.24" height="18.14"/>
			<rect x="451.89" y="918.86" class="st10" width="6.24" height="18.14"/>
			<rect x="489.36" y="918.86" class="st10" width="6.24" height="18.14"/>
			<g>
				<rect x="208.37" y="906.77" class="st10" width="6.24" height="30.23"/>
				<rect x="245.84" y="906.77" class="st10" width="6.24" height="30.23"/>
				<rect x="283.3" y="906.77" class="st10" width="6.24" height="30.23"/>
				<rect x="320.77" y="906.77" class="st10" width="6.24" height="30.23"/>
				<rect x="358.23" y="906.77" class="st10" width="6.24" height="30.23"/>
				<rect x="395.7" y="906.77" class="st10" width="6.24" height="30.23"/>
				<rect x="433.16" y="906.77" class="st10" width="6.24" height="30.23"/>
				<rect x="470.63" y="906.77" class="st10" width="6.24" height="30.23"/>
				<rect x="508.09" y="906.77" class="st10" width="6.24" height="30.23"/>
			</g>
		</g>
		
			<rect x="174.81" y="566.47" transform="matrix(-1.836970e-16 1 -1 -1.836970e-16 753.4662 397.6013)" class="st10" width="6.24" height="18.14"/>
		
			<rect x="174.81" y="603.93" transform="matrix(-1.836970e-16 1 -1 -1.836970e-16 790.9311 435.0661)" class="st10" width="6.24" height="18.14"/>
		
			<rect x="174.81" y="641.4" transform="matrix(-1.836970e-16 1 -1 -1.836970e-16 828.3959 472.5309)" class="st10" width="6.24" height="18.14"/>
		
			<rect x="174.81" y="678.86" transform="matrix(-1.836970e-16 1 -1 -1.836970e-16 865.8607 509.9958)" class="st10" width="6.24" height="18.14"/>
		
			<rect x="174.81" y="716.32" transform="matrix(-1.836970e-16 1 -1 -1.836970e-16 903.3255 547.4606)" class="st10" width="6.24" height="18.14"/>
		
			<rect x="174.81" y="753.79" transform="matrix(-1.836970e-16 1 -1 -1.836970e-16 940.7903 584.9254)" class="st10" width="6.24" height="18.14"/>
		
			<rect x="174.81" y="791.25" transform="matrix(-1.836970e-16 1 -1 -1.836970e-16 978.2551 622.3902)" class="st10" width="6.24" height="18.14"/>
		
			<rect x="174.81" y="828.72" transform="matrix(-1.836970e-16 1 -1 -1.836970e-16 1015.72 659.855)" class="st10" width="6.24" height="18.14"/>
		
			<rect x="174.81" y="866.18" transform="matrix(-1.836970e-16 1 -1 -1.836970e-16 1053.1848 697.3198)" class="st10" width="6.24" height="18.14"/>
		
			<rect x="174.81" y="903.65" transform="matrix(-1.836970e-16 1 -1 -1.836970e-16 1090.6495 734.7846)" class="st10" width="6.24" height="18.14"/>
		
			<rect x="180.86" y="579.15" transform="matrix(-1.836970e-16 1 -1 -1.836970e-16 778.2477 410.2847)" class="st10" width="6.24" height="30.23"/>
		
			<rect x="180.86" y="541.68" transform="matrix(-1.836970e-16 1 -1 -1.836970e-16 740.7829 372.8199)" class="st10" width="6.24" height="30.23"/>
		
			<rect x="180.86" y="616.61" transform="matrix(-1.836970e-16 1 -1 -1.836970e-16 815.7125 447.7495)" class="st10" width="6.24" height="30.23"/>
		
			<rect x="180.86" y="654.08" transform="matrix(-1.836970e-16 1 -1 -1.836970e-16 853.1773 485.2144)" class="st10" width="6.24" height="30.23"/>
		
			<rect x="180.86" y="691.54" transform="matrix(-1.836970e-16 1 -1 -1.836970e-16 890.6422 522.6791)" class="st10" width="6.24" height="30.23"/>
		
			<rect x="180.86" y="729.01" transform="matrix(-1.836970e-16 1 -1 -1.836970e-16 928.1069 560.144)" class="st10" width="6.24" height="30.23"/>
		
			<rect x="180.86" y="766.47" transform="matrix(-1.836970e-16 1 -1 -1.836970e-16 965.5717 597.6088)" class="st10" width="6.24" height="30.23"/>
		
			<rect x="180.86" y="803.94" transform="matrix(-1.836970e-16 1 -1 -1.836970e-16 1003.0366 635.0736)" class="st10" width="6.24" height="30.23"/>
		
			<rect x="180.86" y="841.4" transform="matrix(-1.836970e-16 1 -1 -1.836970e-16 1040.5013 672.5384)" class="st10" width="6.24" height="30.23"/>
		
			<rect x="180.86" y="878.87" transform="matrix(-1.836970e-16 1 -1 -1.836970e-16 1077.9662 710.0032)" class="st10" width="6.24" height="30.23"/>
	</g>
</g>
<line class="st11" x1="670.2" y1="177.14" x2="803.66" y2="177.14"/>
<line class="st11" x1="670.2" y1="226.09" x2="803.66" y2="226.09"/>
<line class="st11" x1="670.2" y1="275.03" x2="803.66" y2="275.03"/>
<line class="st11" x1="670.2" y1="323.97" x2="736.93" y2="323.97"/>
<line class="st11" x1="312.83" y1="588.53" x2="446.3" y2="588.53"/>
<line class="st11" x1="312.83" y1="637.47" x2="379.57" y2="637.47"/>
</svg>
