<?xml version="1.0" encoding="utf-8"?>
<!-- Generator: Adobe Illustrator 25.0.0, SVG Export Plug-In . SVG Version: 6.00 Build 0)  -->
<svg version="1.1" id="Layer_1" xmlns="http://www.w3.org/2000/svg" xmlns:xlink="http://www.w3.org/1999/xlink" x="0px" y="0px"
	 viewBox="0 0 1024 1024" style="enable-background:new 0 0 1024 1024;" xml:space="preserve">
<style type="text/css">
	.st0{fill:#BCD63F;}
	.st1{fill:#98AA3A;}
	.st2{fill:#E5E9F4;stroke:#C4CFDF;stroke-width:10;stroke-miterlimit:10;}
	.st3{fill:none;stroke:#10454F;stroke-width:10;stroke-miterlimit:10;}
	.st4{fill:none;stroke:#10454F;stroke-width:10;stroke-miterlimit:10;stroke-dasharray:27.5388,27.5388;}
	.st5{fill:#C4CFDF;stroke:#C4CFDF;stroke-width:10;stroke-linecap:round;stroke-linejoin:round;stroke-miterlimit:10;}
	.st6{fill:#10454F;}
	.st7{fill:#C4CFDF;}
	.st8{fill:none;stroke:#C4CFDF;stroke-width:10;stroke-miterlimit:10;}
</style>
<g>
	<path class="st0" d="M650.21,422.6l5.78-21.66c1.35-5.05-1.24-10.33-6.06-12.36L625,378.08c-7.14-3.01-12.07-9.61-13.08-17.29
		c-0.01-0.08-0.02-0.16-0.03-0.24c-1.03-7.69,1.98-15.37,8.11-20.15l21.32-16.64c4.12-3.22,5.24-8.98,2.62-13.51l-11.23-19.4
		c-2.62-4.53-8.18-6.43-13.02-4.45l-25.05,10.21c-7.19,2.93-15.35,1.72-21.51-3.01c-0.07-0.05-0.13-0.1-0.2-0.15
		c-6.16-4.7-9.43-12.26-8.48-19.95l3.31-26.84c0.64-5.19-2.64-10.06-7.7-11.41l-21.66-5.78c-5.05-1.35-10.33,1.24-12.36,6.06
		l-10.5,24.93c-3.01,7.14-9.61,12.07-17.29,13.08c-0.08,0.01-0.16,0.02-0.24,0.03c-7.69,1.03-15.37-1.98-20.15-8.11l-16.64-21.32
		c-3.22-4.12-8.98-5.24-13.51-2.62l-19.4,11.23c-4.53,2.62-6.43,8.18-4.45,13.02l10.21,25.05c2.93,7.19,1.72,15.35-3.01,21.51
		c-0.05,0.07-0.1,0.13-0.15,0.2c-4.7,6.16-12.26,9.43-19.95,8.48l-26.84-3.31c-5.19-0.64-10.06,2.64-11.41,7.7l-5.78,21.66
		c-1.35,5.05,1.24,10.33,6.06,12.36l24.93,10.5c7.14,3.01,12.07,9.61,13.08,17.29c0.01,0.08,0.02,0.16,0.03,0.24
		c1.03,7.69-1.98,15.37-8.11,20.15l-21.32,16.64c-4.12,3.22-5.24,8.98-2.62,13.51l11.23,19.4c2.62,4.53,8.18,6.43,13.02,4.45
		l25.05-10.21c7.19-2.93,15.35-1.72,21.51,3.01c0.07,0.05,0.13,0.1,0.2,0.15c6.16,4.7,9.43,12.26,8.48,19.95l-3.31,26.84
		c-0.64,5.19,2.64,10.06,7.7,11.41l21.66,5.78c5.05,1.35,10.33-1.24,12.36-6.06l10.5-24.93c3.01-7.14,9.61-12.07,17.29-13.08
		c0.08-0.01,0.16-0.02,0.24-0.03c7.69-1.03,15.37,1.98,20.15,8.11l16.64,21.32c3.22,4.12,8.98,5.24,13.51,2.62l19.4-11.23
		c4.53-2.62,6.43-8.18,4.45-13.02l-10.21-25.05c-2.93-7.19-1.72-15.35,3.01-21.51c0.05-0.07,0.1-0.13,0.15-0.2
		c4.7-6.16,12.26-9.43,19.95-8.48l26.84,3.31C643.99,430.94,648.86,427.65,650.21,422.6z"/>
	<circle class="st1" cx="511.46" cy="373.99" r="70.79"/>
</g>
<g>
	<path class="st0" d="M830.62,224.81l4.86-18.23c1.13-4.25-1.04-8.69-5.1-10.4l-20.98-8.83c-6.01-2.53-10.15-8.09-11-14.55
		c-0.01-0.07-0.02-0.14-0.03-0.21c-0.87-6.47,1.67-12.94,6.82-16.96l17.94-14c3.47-2.71,4.41-7.56,2.21-11.37l-9.45-16.33
		c-2.2-3.81-6.88-5.41-10.96-3.75l-21.08,8.59c-6.05,2.47-12.92,1.45-18.1-2.53c-0.05-0.04-0.11-0.08-0.16-0.13
		c-5.18-3.96-7.94-10.32-7.14-16.79l2.79-22.59c0.54-4.37-2.23-8.46-6.48-9.6l-18.23-4.86c-4.25-1.13-8.69,1.04-10.4,5.1
		l-8.83,20.98c-2.53,6.01-8.09,10.15-14.55,11c-0.07,0.01-0.14,0.02-0.21,0.03c-6.47,0.87-12.94-1.67-16.96-6.82l-14-17.94
		c-2.71-3.47-7.56-4.41-11.37-2.21l-16.33,9.45c-3.81,2.2-5.41,6.88-3.75,10.96l8.59,21.08c2.47,6.05,1.45,12.92-2.53,18.1
		c-0.04,0.05-0.08,0.11-0.13,0.16c-3.96,5.18-10.32,7.94-16.79,7.14l-22.59-2.79c-4.37-0.54-8.46,2.23-9.6,6.48l-4.86,18.23
		c-1.13,4.25,1.04,8.69,5.1,10.4l20.98,8.83c6.01,2.53,10.15,8.09,11,14.55c0.01,0.07,0.02,0.14,0.03,0.21
		c0.87,6.47-1.67,12.94-6.82,16.96l-17.94,14c-3.47,2.71-4.41,7.56-2.21,11.37l9.45,16.33c2.2,3.81,6.88,5.41,10.96,3.75l21.08-8.59
		c6.05-2.47,12.92-1.45,18.1,2.53c0.05,0.04,0.11,0.08,0.16,0.13c5.18,3.96,7.94,10.32,7.14,16.79l-2.79,22.59
		c-0.54,4.37,2.23,8.46,6.48,9.6l18.23,4.86c4.25,1.13,8.69-1.04,10.4-5.1l8.83-20.98c2.53-6.01,8.09-10.15,14.55-11
		c0.07-0.01,0.14-0.02,0.21-0.03c6.47-0.87,12.94,1.67,16.96,6.82l14,17.94c2.71,3.47,7.56,4.41,11.37,2.21l16.33-9.45
		c3.81-2.2,5.41-6.88,3.75-10.96l-8.59-21.08c-2.47-6.05-1.45-12.92,2.53-18.1c0.04-0.05,0.08-0.11,0.13-0.16
		c3.96-5.18,10.32-7.94,16.79-7.14l22.59,2.79C825.39,231.83,829.49,229.07,830.62,224.81z"/>
	<circle class="st1" cx="713.87" cy="183.91" r="59.57"/>
</g>
<path class="st2" d="M913.24,583.67H690.83c-50.42,0-97.86-22.59-130.81-60.75c-21.13-24.47-52.37-39.95-87.23-39.95H138.65V962
	h334.13c34.86,0,66.11-15.49,87.23-39.95c32.95-38.17,80.39-60.75,130.81-60.75h222.41c21.24,0,38.45-62.15,38.45-138.81
	S934.48,583.67,913.24,583.67z"/>
<g>
	<g>
		<line class="st3" x1="858.97" y1="771.7" x2="845.47" y2="771.7"/>
		<path class="st4" d="M817.94,771.7H690.83c-75.86,0-148.26,33.46-198.63,91.8c-2.87,3.33-9.22,8.91-19.42,8.91H255.51"/>
		<line class="st3" x1="241.74" y1="872.41" x2="228.24" y2="872.41"/>
	</g>
</g>
<g>
	<g>
		<line class="st3" x1="228.24" y1="572.55" x2="241.74" y2="572.55"/>
		<path class="st4" d="M269.28,572.55h203.5c10.2,0,16.55,5.58,19.42,8.91c50.37,58.34,122.77,91.8,198.63,91.8H831.7"/>
		<line class="st3" x1="845.47" y1="673.26" x2="858.97" y2="673.26"/>
	</g>
</g>
<ellipse class="st5" cx="138.65" cy="722.48" rx="66.34" ry="239.52"/>
<polygon class="st6" points="890.06,673.26 849.42,649.79 849.42,696.72 "/>
<polygon class="st6" points="890.06,771.7 849.42,748.24 849.42,795.17 "/>
<polygon class="st7" points="778.7,722.48 738.05,699.01 738.05,745.95 "/>
<line class="st8" x1="228.24" y1="722.48" x2="758.37" y2="722.48"/>
</svg>
