<?xml version="1.0" encoding="utf-8"?>
<!-- Generator: Adobe Illustrator 27.4.1, SVG Export Plug-In . SVG Version: 6.00 Build 0)  -->
<svg version="1.1" id="Layer_1" xmlns="http://www.w3.org/2000/svg" xmlns:xlink="http://www.w3.org/1999/xlink" x="0px" y="0px"
	 viewBox="0 0 1024 1024" style="enable-background:new 0 0 1024 1024;" xml:space="preserve">
<style type="text/css">
	.st0{fill:#E4E8F3;stroke:#C3CEDE;stroke-width:10;stroke-miterlimit:10;}
	.st1{fill:none;stroke:#97AA3A;stroke-width:10;stroke-linecap:round;stroke-miterlimit:10;}
	.st2{fill:#BCD53E;}
	.st3{fill:none;stroke:#C3CEDE;stroke-width:10;stroke-linecap:round;stroke-linejoin:round;stroke-miterlimit:10;}
	.st4{fill:#11454F;}
</style>
<g>
	<path class="st0" d="M361.16,847.28c-34.39-49.49-99.34-30.23-72.81-164.13s133.28-193.13,215.34-188.81s98.72,59.54,102.74,72.19
		s24.99,15.43,33.63,29.93c8.64,14.5,12.03,33.63,26.22,39.49c14.19,5.86,49.67,24.06,55.84,73.12
		c6.17,49.05-3.39,104.59-78.98,165.06c-75.59,60.47-163.82,68.8-214.11,53.06C378.74,911.45,381.52,876.59,361.16,847.28z"/>
	<path class="st1" d="M616,616.89c0,0,58.41-66.4,125.87-41.72"/>
	<path class="st2" d="M419.73,313.16c-11.66,2.07-15.57,17.02-6.3,24.38c9.54,7.58,18.34,19.83,24.03,39.36
		c18.92,64.99,38.67,81.45,113.53,100.37c74.87,18.92,88.85,23.86,99.14,47.31c0,0,26.33-101.6-57.18-174.41
		C539.21,303.31,468.61,304.49,419.73,313.16z"/>
	<path class="st1" d="M675.99,576.16c0,0-20.51-14.15-25.86-51.58s-49.77-119.7-111.07-159.61c-21.18-13.79-45.08-23.12-68.39-29.25
		"/>
	<path class="st3" d="M566.01,592.45c0,0,67.87,2.47,66.02,77.75"/>
</g>
<g>
	<path class="st4" d="M317.08,170.55c6.36,40.65,7.78,81.92,8,122.99c-0.19,41.06-1.61,82.34-8,122.99
		c-6.39-40.65-7.81-81.92-8-122.99C309.3,252.47,310.72,211.2,317.08,170.55L317.08,170.55z"/>
</g>
<g>
	<path class="st4" d="M723.67,202.74c6.37,50.88,7.77,102.18,8,153.37c-0.19,51.2-1.59,102.5-8,153.37
		c-6.4-50.87-7.81-102.18-8-153.37C715.89,304.92,717.3,253.62,723.67,202.74L723.67,202.74z"/>
</g>
<g>
	<path class="st4" d="M470.68,76.45c6.27,22.63,7.81,46.33,8,69.67c-0.01,17.46-1.13,34.98-4.07,52.26
		c-1.05,5.86-2.19,11.67-3.93,17.42c-1.74-5.75-2.89-11.56-3.93-17.42c-2.94-17.28-4.06-34.8-4.07-52.26
		C462.86,122.77,464.41,99.08,470.68,76.45L470.68,76.45z"/>
</g>
<g>
	<path class="st4" d="M609.29,53.8c6.35,38.55,7.78,77.76,8,116.75c-0.06,34.09-1.44,68.28-5.77,102.15
		c-0.64,4.86-1.34,9.73-2.23,14.59c-0.89-4.86-1.59-9.73-2.23-14.59c-4.33-33.87-5.71-68.06-5.77-102.15
		C601.52,131.56,602.94,92.36,609.29,53.8L609.29,53.8z"/>
</g>
</svg>
