<?xml version="1.0" encoding="utf-8"?>
<!-- Generator: Adobe Illustrator 25.0.0, SVG Export Plug-In . SVG Version: 6.00 Build 0)  -->
<svg version="1.1" id="Layer_1" xmlns="http://www.w3.org/2000/svg" xmlns:xlink="http://www.w3.org/1999/xlink" x="0px" y="0px"
	 viewBox="0 0 1024 1024" style="enable-background:new 0 0 1024 1024;" xml:space="preserve">
<style type="text/css">
	.st0{fill:#97AA3A;}
	.st1{fill:#11454F;}
	.st2{fill:#C3CEDE;stroke:#C3CEDE;stroke-width:10;stroke-linecap:round;stroke-linejoin:round;stroke-miterlimit:10;}
	.st3{fill:#E4E8F3;stroke:#C3CEDE;stroke-width:10;stroke-miterlimit:10;}
	.st4{fill:none;stroke:#C3CEDE;stroke-width:10;stroke-miterlimit:10;stroke-dasharray:27;}
	.st5{fill:#BDE038;}
</style>
<rect x="499.44" y="87" class="st0" width="25.12" height="35.87"/>
<g>
	<rect x="468.57" y="134.55" class="st1" width="86.85" height="63.4"/>
	<rect x="457.73" y="122.87" class="st1" width="108.55" height="23.36"/>
</g>
<g>
	<rect x="314.51" y="171.21" class="st1" width="58.82" height="42.93"/>
	<rect x="307.17" y="163.3" class="st1" width="73.51" height="15.82"/>
	<rect x="650.67" y="171.21" class="st1" width="58.82" height="42.93"/>
	<rect x="643.33" y="163.3" class="st1" width="73.51" height="15.82"/>
</g>
<path class="st2" d="M213.32,272.58v291.75v291.75c0,107.88,597.35,107.88,597.35,0V564.34V272.58
	C810.68,164.7,213.32,164.7,213.32,272.58z"/>
<path class="st3" d="M766.38,321.1v529.44c-5.68,4.64-25.13,16.99-80.23,27.67c-48.25,9.35-110.09,14.5-174.15,14.5
	s-125.9-5.15-174.15-14.5c-55.1-10.68-74.55-23.03-80.23-27.67V321.1c5.68,4.64,25.13,16.99,80.23,27.66
	c45.09,8.74,102.04,13.81,161.59,14.43c4.17,0.05,8.36,0.07,12.56,0.07c4.2,0,8.39-0.02,12.56-0.07
	c59.55-0.62,116.5-5.69,161.59-14.43C741.25,338.08,760.7,325.73,766.38,321.1z"/>
<path class="st4" d="M288.65,457.39c0-16.95,100-30.69,223.35-30.69s223.35,13.74,223.35,30.69s-100,30.69-223.35,30.69"/>
<path class="st4" d="M288.65,547.5c0-16.95,100-30.69,223.35-30.69s223.35,13.74,223.35,30.69s-100,30.69-223.35,30.69"/>
<path class="st4" d="M288.65,637.61c0-16.95,100-30.69,223.35-30.69s223.35,13.74,223.35,30.69s-100,30.69-223.35,30.69"/>
<path class="st4" d="M288.65,727.72c0-16.95,100-30.69,223.35-30.69s223.35,13.74,223.35,30.69c0,16.95-100,30.69-223.35,30.69"/>
<g>
	
		<rect x="102.41" y="727.01" transform="matrix(6.123234e-17 -1 1 6.123234e-17 -619.1556 878.5347)" class="st1" width="54.56" height="43.67"/>
	<rect x="99.81" y="714.75" class="st1" width="16.09" height="68.19"/>
</g>
<g>
	
		<rect x="867.03" y="438.96" transform="matrix(3.267949e-07 1 -1 3.267949e-07 1355.106 -433.5148)" class="st1" width="54.56" height="43.67"/>
	<rect x="908.1" y="426.7" class="st1" width="16.09" height="68.19"/>
</g>
<path class="st0" d="M524.56,368.34v460.67h-25.12V368.34c4.17,0.05,8.36,0.07,12.56,0.07C516.2,368.41,520.39,368.39,524.56,368.34
	z"/>
<g>
	<path class="st5" d="M450.57,793.29h-85.58c-9.94,0-18,8.06-18,18v25.12c0,9.94,8.06,18,18,18h85.58c9.94,0,18-8.06,18-18v-25.12
		C468.57,801.35,460.51,793.29,450.57,793.29z"/>
	<path class="st5" d="M659.01,793.29h-85.58c-9.94,0-18,8.06-18,18v25.12c0,9.94,8.06,18,18,18h85.58c9.94,0,18-8.06,18-18v-25.12
		C677.01,801.35,668.95,793.29,659.01,793.29z"/>
</g>
<rect x="441.92" y="815.23" class="st5" width="140.15" height="17.24"/>
<path class="st3" d="M179.98,832.47h33.35v-441.6h-33.35c-15.71,0-28.45,12.74-28.45,28.45v384.7
	C151.53,819.73,164.26,832.47,179.98,832.47z"/>
<path class="st3" d="M844.02,390.87h-33.35v441.6h33.35c15.71,0,28.45-12.74,28.45-28.45v-384.7
	C872.47,403.61,859.74,390.87,844.02,390.87z"/>
</svg>
