<?xml version="1.0" encoding="utf-8"?>
<!-- Generator: Adobe Illustrator 25.0.0, SVG Export Plug-In . SVG Version: 6.00 Build 0)  -->
<svg version="1.1" id="Layer_1" xmlns="http://www.w3.org/2000/svg" xmlns:xlink="http://www.w3.org/1999/xlink" x="0px" y="0px"
	 viewBox="0 0 1000 1000" style="enable-background:new 0 0 1000 1000;" xml:space="preserve">
<style type="text/css">
	.st0{fill:#196774;}
</style>
<path class="st0" d="M1000,509.87c-8.43,10.08-16.17,20.86-25.41,30.13c-98.79,99.16-197.85,198.05-296.76,297.1
	c-10.48,10.5-22.02,17.25-37.43,13.3c-25.02-6.42-35.28-34.84-20.05-55.73c2.66-3.65,5.94-6.89,9.16-10.1
	c80.17-80.04,160.36-160.04,240.54-240.06c2.41-2.4,4.67-4.94,8.5-9.01c-5.55,0-8.98,0-12.42,0c-273.44,0-546.87-0.15-820.31,0.29
	C23.7,535.81,8.17,528.92,0,507.92c0-5.86,0-11.72,0-17.58c9.59-20.72,26.2-26.04,48.21-26c272.36,0.52,544.73,0.34,817.09,0.34
	c3.55,0,7.11,0,13.11,0c-3.39-3.68-5.49-6.15-7.78-8.44c-80.98-81.01-161.95-162.03-243.01-242.96
	c-7.84-7.82-14.07-16.27-14.27-27.8c-0.25-14.65,6.12-25.79,19-32.67c12.62-6.74,25.12-5.52,36.75,2.64
	c3.69,2.59,6.89,5.95,10.1,9.16c100.57,100.53,201.2,201.01,301.53,301.79c7.51,7.55,12.89,17.22,19.26,25.9
	C1000,498.16,1000,504.02,1000,509.87z"/>
</svg>
