<?xml version="1.0" encoding="utf-8"?>
<!-- Generator: Adobe Illustrator 25.0.0, SVG Export Plug-In . SVG Version: 6.00 Build 0)  -->
<svg version="1.1" id="Layer_1" xmlns="http://www.w3.org/2000/svg" xmlns:xlink="http://www.w3.org/1999/xlink" x="0px" y="0px"
	 viewBox="0 0 1000 1000" style="enable-background:new 0 0 1000 1000;" xml:space="preserve">
<style type="text/css">
	.st0{fill:#585858;stroke:#585858;stroke-miterlimit:10;}
</style>
<path class="st0" d="M676.7,262.08c37.18,71.53,51.86,155.45,36.48,240.93C676.23,708.36,479.8,844.88,274.44,807.93
	c-86.85-15.63-161.38-59.78-215.7-121.07c52.15,100.32,148.57,176.24,268.45,197.81c205.36,36.95,401.79-99.57,438.74-304.93
	C787.26,461.24,750.81,345.71,676.7,262.08z"/>
<path class="st0" d="M323.3,737.92C286.12,666.4,271.44,582.47,286.82,497c36.95-205.36,233.38-341.88,438.74-304.93
	c86.85,15.63,161.38,59.78,215.7,121.07C889.11,212.81,792.69,136.89,672.8,115.32c-205.36-36.95-401.79,99.57-438.74,304.93
	C212.74,538.76,249.19,654.29,323.3,737.92z"/>
</svg>
