<?xml version="1.0" encoding="utf-8"?>
<!-- Generator: Adobe Illustrator 25.0.0, SVG Export Plug-In . SVG Version: 6.00 Build 0)  -->
<svg version="1.1" id="Layer_1" xmlns="http://www.w3.org/2000/svg" xmlns:xlink="http://www.w3.org/1999/xlink" x="0px" y="0px"
	 viewBox="0 0 1024 1024" style="enable-background:new 0 0 1024 1024;" xml:space="preserve">
<style type="text/css">
	.st0{fill:#E5E9F4;stroke:#C4CFDF;stroke-width:10;stroke-linecap:round;stroke-linejoin:round;stroke-miterlimit:10;}
	.st1{fill:none;stroke:#C4CFDF;stroke-width:10;stroke-miterlimit:10;stroke-dasharray:27;}
	.st2{fill:none;stroke:#10454F;stroke-width:16;stroke-miterlimit:10;}
	.st3{fill:#10454F;}
	.st4{fill:#BCD63F;}
	.st5{fill:#98AA3A;}
</style>
<path class="st0" d="M758.94,359.11V544.5c0,37.25-8.63,73.99-25.23,107.34L618.14,884.17H497.26L381.68,651.84
	c-16.59-33.35-25.23-70.09-25.23-107.34V359.11c0,32.58,90.1,59,201.24,59C668.84,418.11,758.94,391.69,758.94,359.11z"/>
<path class="st0" d="M356.46,236.34v58.99H199.3v121.65h319.12c6.34,0.37,12.78,0.65,19.32,0.84c0.04,0,0.08,0,0.12,0
	c3.23,0.09,6.47,0.16,9.74,0.21c0.07,0,0.15,0,0.22,0c3.27,0.05,6.55,0.07,9.86,0.07c111.15,0,201.25-26.42,201.25-59V236.34H356.46
	z"/>
<ellipse class="st0" cx="557.7" cy="236.34" rx="201.24" ry="59"/>
<path class="st1" d="M433.11,679.49c0-29.7,55.78-53.78,124.59-53.78s124.59,24.08,124.59,53.78c0,29.7-55.78,53.78-124.59,53.78"/>
<path class="st1" d="M489.86,805.95c0-16.17,30.37-29.28,67.83-29.28c37.46,0,67.83,13.11,67.83,29.28
	c0,16.17-30.37,29.28-67.83,29.28"/>
<line class="st0" x1="356.46" y1="295.34" x2="557.7" y2="295.34"/>
<polyline class="st0" points="489.87,249.91 489.87,62 625.53,62 625.53,249.91 "/>
<line class="st2" x1="265.44" y1="352.27" x2="646.59" y2="352.27"/>
<polygon class="st3" points="667.64,352.27 625.53,327.96 625.53,376.58 "/>
<g>
	<line class="st2" x1="527.01" y1="236.34" x2="527.01" y2="103.11"/>
	<polygon class="st3" points="527.01,82.05 502.7,124.16 551.31,124.16 	"/>
</g>
<g>
	<line class="st2" x1="588.39" y1="236.34" x2="588.39" y2="103.11"/>
	<polygon class="st3" points="588.39,82.05 564.08,124.16 612.7,124.16 	"/>
</g>
<g>
	<polygon class="st3" points="444.89,541.76 402.78,517.45 402.78,566.07 	"/>
	<path class="st2" d="M342.07,467.08h-2.23c-20.62,0-37.34,16.72-37.34,37.34v0c0,20.62,16.72,37.34,37.34,37.34h72.72"/>
</g>
<g>
	<polygon class="st3" points="667.64,625.61 709.74,601.3 709.74,649.92 	"/>
	<path class="st2" d="M770.45,550.93h2.23c20.62,0,37.34,16.72,37.34,37.34v0c0,20.62-16.72,37.34-37.34,37.34h-72.72"/>
</g>
<g>
	<rect x="290.7" y="664.96" class="st4" width="533.99" height="72.53"/>
	<g>
		<rect x="317.51" y="737.49" class="st5" width="47.85" height="224.51"/>
		<rect x="750.03" y="737.49" class="st5" width="47.85" height="224.51"/>
	</g>
</g>
<rect x="497.26" y="884.17" class="st0" width="120.88" height="77.83"/>
<path class="st1" d="M393.62,510.45c0-39.11,73.46-70.82,164.08-70.82s164.08,31.71,164.08,70.82s-73.46,70.82-164.08,70.82"/>
</svg>
